####
#
# OBJ File Generated by Meshlab
#
####
# Object Merge.obj
#
# Vertices: 54
# Faces: 88
#
####
vn -0.012640 0.002573 2.720627
v -0.040486 -0.003963 -0.947769 0.752941 0.752941 0.752941
vn -0.012658 0.002579 2.720649
v -0.037600 -0.005620 -0.945393 0.752941 0.752941 0.752941
vn -0.012646 0.002612 2.720694
v 0.043389 0.041278 -1.011074 0.752941 0.752941 0.752941
vn -0.012701 0.002471 2.720281
v 0.040503 0.042934 -1.013450 0.752941 0.752941 0.752941
vn -0.012628 0.002540 2.720659
v -0.040515 0.000335 -0.944736 0.752941 0.752941 0.752941
vn -0.012618 0.002573 2.720732
v -0.037629 -0.001322 -0.942360 0.752941 0.752941 0.752941
vn -0.012521 0.002401 2.720921
v 0.043360 0.045576 -1.008041 0.752941 0.752941 0.752941
vn -0.012400 0.002424 2.720807
v 0.040474 0.047233 -1.010416 0.752941 0.752941 0.752941
vn -2.219575 -1.293595 -0.896181
v 0.043022 -0.007079 -1.045867 0.752941 0.752941 0.752941
vn -2.219487 -1.293439 -0.896173
v -0.038127 -0.053944 -0.979016 0.752941 0.752941 0.752941
vn -2.219442 -1.293427 -0.896168
v -0.038132 -0.050359 -0.976510 0.752941 0.752941 0.752941
vn -2.219364 -1.293527 -0.896335
v 0.043017 -0.003495 -1.043361 0.752941 0.752941 0.752941
vn -2.219418 -1.293294 -0.896165
v 0.040977 -0.005916 -1.047535 0.752941 0.752941 0.752941
vn -2.219486 -1.293470 -0.896133
v -0.040172 -0.052781 -0.980683 0.752941 0.752941 0.752941
vn -2.219471 -1.293509 -0.896179
v -0.040177 -0.049197 -0.978177 0.752941 0.752941 0.752941
vn -2.219546 -1.293412 -0.895986
v 0.040972 -0.002332 -1.045029 0.752941 0.752941 0.752941
vn 0.002061 -2.569335 0.907772
v 0.037058 -0.006107 -1.038438 0.752941 0.752941 0.752941
vn -0.010318 0.000134 2.715649
v 0.036883 0.038411 -1.006879 0.752941 0.752941 0.752941
vn -2.233060 -1.272763 4.527725
v 0.034839 0.039584 -1.008562 0.752941 0.752941 0.752941
vn -0.017945 0.008820 2.732069
v 0.034790 0.043444 -1.005869 0.752941 0.752941 0.752941
vn -2.467073 1.675391 2.270231
v 0.027303 0.047744 -1.012032 0.752941 0.752941 0.752941
vn -3.549591 1.029086 0.431012
v -0.008977 0.027138 -1.071476 0.752941 0.752941 0.752941
vn -2.218540 -1.303197 -0.918890
v -0.008887 0.020209 -1.076311 0.752941 0.752941 0.752941
vn -4.433235 -2.585239 0.876839
v -0.006846 0.019035 -1.074631 0.752941 0.752941 0.752941
vn -2.218753 -1.303493 -0.918790
v -0.006795 0.015177 -1.077322 0.752941 0.752941 0.752941
vn 0.009300 -2.551190 0.911141
v 0.035067 -0.008888 -1.042878 0.752941 0.752941 0.752941
vn -2.226832 -3.845862 2.725036
v 0.035016 -0.004933 -1.040118 0.752941 0.752941 0.752941
vn 2.231715 -1.278719 -0.899806
v 0.038710 -0.005150 -1.039777 0.752941 0.752941 0.752941
vn 2.210903 1.285762 0.914800
v 0.038535 0.039367 -1.008219 0.752941 0.752941 0.752941
vn 4.433281 2.585548 -0.878581
v 0.036491 0.040541 -1.009902 0.752941 0.752941 0.752941
vn 2.217623 1.302713 0.918459
v 0.036442 0.044400 -1.007208 0.752941 0.752941 0.752941
vn 0.883486 3.614405 -0.446490
v 0.028955 0.048700 -1.013371 0.752941 0.752941 0.752941
vn -0.234118 2.947908 -2.257776
v -0.007325 0.028094 -1.072816 0.752941 0.752941 0.752941
vn 0.017955 -0.008654 -2.733044
v -0.007235 0.021165 -1.077650 0.752941 0.752941 0.752941
vn 2.231340 1.272131 -4.528225
v -0.005194 0.019991 -1.075971 0.752941 0.752941 0.752941
vn 0.018157 -0.008807 -2.733435
v -0.005143 0.016134 -1.078661 0.752941 0.752941 0.752941
vn 2.223538 -1.269459 -0.884704
v 0.036719 -0.007932 -1.044218 0.752941 0.752941 0.752941
vn 4.460564 0.024812 -2.697776
v 0.036668 -0.003977 -1.041458 0.752941 0.752941 0.752941
vn 0.007123 -2.564696 0.915365
v -0.029906 -0.045609 -0.983287 0.752941 0.752941 0.752941
vn 2.227231 -1.282129 -0.899879
v -0.026572 -0.043683 -0.986034 0.752941 0.752941 0.752941
vn 2.219600 1.297782 0.916634
v -0.026850 0.000937 -0.954582 0.752941 0.752941 0.752941
vn -0.011782 -0.000712 2.706869
v -0.030310 -0.001085 -0.951750 0.752941 0.752941 0.752941
vn -2.233246 -1.302409 -0.919450
v -0.031983 -0.044411 -0.985004 0.752941 0.752941 0.752941
vn 0.006777 -0.008385 -2.702441
v -0.028649 -0.042485 -0.987751 0.752941 0.752941 0.752941
vn -0.007001 2.553201 -0.907439
v -0.028927 0.002135 -0.956299 0.752941 0.752941 0.752941
vn -2.235803 1.275140 0.900396
v -0.032387 0.000113 -0.953467 0.752941 0.752941 0.752941
vn 0.007089 -2.565436 0.914972
v 0.033864 -0.008780 -1.035821 0.752941 0.752941 0.752941
vn 2.228184 -1.283023 -0.899535
v 0.037190 -0.006860 -1.038561 0.752941 0.752941 0.752941
vn 2.220232 1.297817 0.917607
v 0.036906 0.038210 -1.006789 0.752941 0.752941 0.752941
vn -0.013089 -0.001695 2.705014
v 0.033418 0.036172 -1.003935 0.752941 0.752941 0.752941
vn -2.234417 -1.303384 -0.921891
v 0.031784 -0.007580 -1.037543 0.752941 0.752941 0.752941
vn 0.007675 -0.008312 -2.701110
v 0.035111 -0.005659 -1.040283 0.752941 0.752941 0.752941
vn -0.006369 2.552677 -0.907192
v 0.034826 0.039410 -1.008510 0.752941 0.752941 0.752941
vn -2.235431 1.274206 0.899796
v 0.031338 0.037373 -1.005656 0.752941 0.752941 0.752941
# 54 vertices, 0 vertices normals

f 1//1 2//2 3//3
f 1//1 3//3 4//4
f 6//6 7//7 8//8
f 6//6 8//8 5//5
f 3//3 7//7 6//6
f 3//3 6//6 2//2
f 1//1 4//4 8//8
f 1//1 8//8 5//5
f 2//2 6//6 5//5
f 2//2 5//5 1//1
f 3//3 7//7 8//8
f 3//3 8//8 4//4
f 10//10 11//11 12//12
f 10//10 12//12 9//9
f 13//13 14//14 15//15
f 13//13 15//15 16//16
f 10//10 11//11 15//15
f 10//10 15//15 14//14
f 9//9 12//12 16//16
f 9//9 16//16 13//13
f 10//10 14//14 13//13
f 10//10 13//13 9//9
f 12//12 11//11 15//15
f 12//12 15//15 16//16
f 20//20 21//21 19//19
f 18//18 19//19 17//17
f 27//27 17//17 19//19
f 19//19 21//21 27//27
f 22//22 23//23 24//24
f 22//22 24//24 27//27
f 27//27 25//25 26//26
f 25//25 27//27 24//24
f 22//22 27//27 21//21
f 34//34 33//33 35//35
f 37//37 36//36 38//38
f 35//35 38//38 36//36
f 35//35 33//33 38//38
f 32//32 31//31 30//30
f 32//32 30//30 38//38
f 30//30 28//28 38//38
f 28//28 30//30 29//29
f 32//32 38//38 33//33
f 28//28 29//29 18//18
f 28//28 18//18 17//17
f 29//29 30//30 19//19
f 29//29 19//19 18//18
f 30//30 31//31 20//20
f 30//30 20//20 19//19
f 20//20 31//31 32//32
f 20//20 32//32 21//21
f 21//21 32//32 33//33
f 21//21 33//33 22//22
f 22//22 33//33 34//34
f 22//22 34//34 23//23
f 34//34 35//35 24//24
f 34//34 24//24 23//23
f 24//24 35//35 36//36
f 24//24 36//36 25//25
f 36//36 37//37 26//26
f 36//36 26//26 25//25
f 26//26 37//37 38//38
f 26//26 38//38 27//27
f 27//27 38//38 28//28
f 27//27 28//28 17//17
f 39//39 40//40 41//41
f 39//39 41//41 42//42
f 45//45 44//44 43//43
f 45//45 43//43 46//46
f 43//43 44//44 40//40
f 43//43 40//40 39//39
f 44//44 45//45 41//41
f 44//44 41//41 40//40
f 41//41 45//45 46//46
f 41//41 46//46 42//42
f 46//46 43//43 39//39
f 46//46 39//39 42//42
f 47//47 48//48 49//49
f 47//47 49//49 50//50
f 53//53 52//52 51//51
f 53//53 51//51 54//54
f 51//51 52//52 48//48
f 51//51 48//48 47//47
f 52//52 53//53 49//49
f 52//52 49//49 48//48
f 49//49 53//53 54//54
f 49//49 54//54 50//50
f 54//54 51//51 47//47
f 54//54 47//47 50//50
# 88 faces, 0 coords texture

# End of File
